<svg xmlns="http://www.w3.org/2000/svg" xmlns:xlink="http://www.w3.org/1999/xlink" width="545" height="409" viewBox="0 0 545 409">
  <defs>
    <rect id="daftar-sekarang-gofood-a" width="545" height="409" x="0" y="0"/>
    <polygon id="daftar-sekarang-gofood-c" points=".187 .197 9.398 .197 9.398 46.447 .187 46.447"/>
  </defs>
  <g fill="none" fill-rule="evenodd">
    <mask id="daftar-sekarang-gofood-b" fill="#fff">
      <use xlink:href="#daftar-sekarang-gofood-a"/>
    </mask>
    <g mask="url(#daftar-sekarang-gofood-b)">
      <g transform="translate(0 43)">
        <path fill="#D8D8D8" fill-rule="nonzero" d="M122.939872,237.028637 C122.939872,237.028637 134.884583,249.235869 143.682111,256.128967 C152.480407,263.022066 157.994886,251.205545 157.994886,251.205545 L155.081822,202.335933 C155.081822,202.335933 125.738562,182.709791 113.342499,177.724193 L122.939872,237.028637 Z"/>
        <polygon fill="#000" fill-rule="nonzero" points="76.475 340.662 72.807 367.773 21.445 367.773 34.119 301.808 44.958 295.304 125.168 299.071 128.503 367.773 79.977 367.773"/>
        <path fill="#C10089" fill-rule="nonzero" d="M51.5480957,302.247405 C51.5480957,302.247405 99.4136799,316.147976 122.290631,300.475771 L106.969222,179.260862 L100.947356,172.738517 L79.4705183,173.151489 L52.5398422,166.125595 L51.5480957,302.247405 Z"/>
        <path fill="#000" fill-rule="nonzero" d="M52.5398422,166.125595 C51.746138,175.384454 55.9963704,181.917546 66.3506028,184.340109 C70.3329409,185.271983 77.8692929,183.233989 79.4705183,173.151489 C79.4705183,173.151489 80.6687507,185.868412 89.7080743,184.271793 C94.5662506,183.412074 100.153652,180.145912 100.947356,172.738517 C101.417131,168.359328 101.120067,160.452989 91.5725888,157.810891 C84.1114618,155.746799 70.6998563,153.572172 60.6188916,157.014116 C60.6188916,157.014116 53.1155465,159.402138 52.5398422,166.125595"/>
        <path fill="#FFA4AC" fill-rule="nonzero" d="M95.3765349,151.76592 C95.1293663,152.636384 94.2589012,162.971427 93.9019651,167.30149 C93.8006406,168.539638 92.9478313,169.575906 91.7565068,169.924399 C89.0982888,170.701983 83.7803169,171.662257 75.7964507,170.422574 C67.7588521,169.172912 63.1701056,167.154878 60.9678451,165.917497 C59.95,165.345631 59.3735282,164.220321 59.4763873,163.057399 L61.7469648,137.695709 L95.3765349,151.76592 Z"/>
        <path fill="#000" fill-rule="nonzero" d="M66.799038,152.610746 C66.799038,152.610746 63.4730028,166.182782 48.3542422,165.504986 C33.2347141,164.827957 22.9088831,145.796711 29.1779183,125.627106 C35.4469535,105.456733 48.1984183,80.2124859 69.1110662,78.1760282 C90.0237145,76.140338 109.752714,81.1190282 119.709327,103.244493 C129.665172,125.370726 133.537743,145.163437 126.531038,155.08781 C119.524334,165.012183 108.576743,161.877282 104.923707,158.558922 L66.799038,152.610746 Z"/>
        <path fill="#FFA4AC" fill-rule="nonzero" d="M71.6692655,101.870095 C71.6692655,101.870095 91.933287,114.469574 114.553857,111.075989 C114.553857,111.075989 121.151428,134.543996 114.396498,148.681757 C107.641568,162.819517 98.5423713,165.961328 87.8542299,163.762905 C77.1668571,161.563715 66.7988078,152.61113 66.7988078,152.61113 C66.7988078,152.61113 70.8840049,134.072687 55.3323148,119.620976 C55.3323148,119.620976 66.6422162,120.563595 71.6692655,101.870095"/>
        <path fill="#000" fill-rule="nonzero" d="M90.3811112,134.539007 C90.3626888,134.750866 90.4371462,134.303352 90.3857169,134.509838 C90.3711325,134.567409 90.3611538,134.625746 90.3442663,134.682549 C90.3312169,134.730141 90.3120269,134.776965 90.2989775,134.823789 C90.2644349,134.939697 90.3979988,134.619606 90.3189349,134.777733 C90.2652032,134.884429 90.2053293,134.985754 90.1416181,135.08631 C90.0472032,135.23369 90.2521538,134.96119 90.1723225,135.051 C90.1393157,135.088612 90.1086112,135.126993 90.0740687,135.163071 C90.0333855,135.206824 89.9904,135.249043 89.9474145,135.289726 C89.9251538,135.309683 89.9028932,135.328873 89.8798651,135.348063 C89.8222944,135.396422 89.851463,135.375697 89.9650687,135.28512 C89.8852382,135.308148 89.7908225,135.404866 89.7163651,135.447084 C89.6772169,135.468578 89.5866394,135.492373 89.5574707,135.526916 C89.6956394,135.47088 89.7294145,135.456296 89.6587944,135.483162 C89.6303932,135.493909 89.6027594,135.503888 89.5743574,135.513866 C89.5283012,135.528451 89.4799426,135.542267 89.4323506,135.553782 C89.3932032,135.563761 89.1805763,135.593697 89.3601956,135.575274 C89.53521,135.556084 89.354055,135.572204 89.3141394,135.574507 C89.2550337,135.57681 89.1959281,135.577578 89.1368225,135.574507 C89.093837,135.572972 88.9218932,135.543803 89.0915337,135.57681 C89.2734562,135.610584 89.0554562,135.566831 89.0201462,135.558388 C88.9172876,135.535359 88.8098225,135.479324 88.706963,135.463972 C88.7499494,135.482394 88.7929349,135.500817 88.8351538,135.518472 C88.7990763,135.50312 88.7637663,135.485465 88.7284562,135.46781 C88.6839349,135.445549 88.6401819,135.420986 88.5971956,135.395655 C88.55421,135.371091 88.5135269,135.341922 88.4713088,135.316591 C88.2947594,135.211429 88.6355763,135.467043 88.4828225,135.328873 C88.4014562,135.255951 88.3208574,135.183796 88.2479349,135.101662 C88.1435406,134.984986 88.2371888,135.071726 88.2724988,135.142345 C88.2479349,135.093218 88.2026462,135.043324 88.1734775,134.995733 C88.1420056,134.944303 88.1151394,134.892106 88.0867382,134.839909 C87.9969281,134.674873 88.1650337,135.049465 88.0936462,134.859099 C87.9101888,134.372437 87.4120124,133.987099 86.8677799,134.163648 C86.3926325,134.317169 85.97659,134.866774 86.1723293,135.388746 C86.70121,136.795767 88.1059281,137.736084 89.6250201,137.531901 C91.1402731,137.329254 92.2456257,136.030465 92.3738157,134.539007 C92.4175687,134.017803 91.8833157,133.520394 91.377463,133.542655 C90.7994562,133.567986 90.4287032,133.980957 90.3811112,134.539007"/>
        <path fill="#000" fill-rule="nonzero" d="M90.5910512,134.935552 C90.9203544,135.674756 91.72634,136.160651 92.4962488,136.311869 C92.8969388,136.390933 93.3037701,136.417799 93.7106006,136.427778 C94.122805,136.437756 94.5557343,136.439291 94.9541219,136.321848 C96.6896781,135.805249 97.0650376,133.658256 96.7088681,132.119974 C96.5906568,131.61182 95.9804106,131.263327 95.4830018,131.424524 C94.9518187,131.5957 94.6616645,132.104622 94.7875512,132.648855 C94.8044388,132.725616 94.8197906,132.801609 94.8343757,132.878369 C94.8719882,133.069503 94.831305,132.758622 94.8343757,132.883743 C94.838213,133.027284 94.8527982,133.167756 94.8481926,133.312066 C94.8458894,133.389594 94.8397488,133.46789 94.8336074,133.544651 C94.8197906,133.739622 94.8620094,133.428743 94.8320725,133.550791 C94.8006006,133.679749 94.7798757,133.81101 94.7407275,133.938433 C94.7253757,133.989862 94.6839243,134.066622 94.6777837,134.119588 C94.686995,134.036686 94.7606849,133.941503 94.6877624,134.085045 C94.6647343,134.131869 94.6386355,134.178693 94.6117701,134.223982 C94.59565,134.250848 94.577995,134.277714 94.56034,134.303045 C94.5181219,134.364454 94.5396151,134.339122 94.6232837,134.227052 C94.6117701,134.223982 94.5288681,134.331446 94.5181219,134.341426 C94.4966287,134.362918 94.4743681,134.383644 94.4505725,134.404369 C94.5649456,134.319933 94.5910444,134.299207 94.5288681,134.341426 C94.5104456,134.351404 94.4167982,134.4297 94.3945376,134.419721 C94.5073757,134.375967 94.5288681,134.365221 94.4590163,134.388249 C94.4244737,134.400531 94.3883962,134.41051 94.3515512,134.418954 C94.1711645,134.474989 94.4797412,134.418186 94.35846,134.425862 C94.2955163,134.4297 94.2325725,134.436609 94.1696287,134.438911 C94.0168757,134.443517 93.8641219,134.439679 93.7106006,134.435841 C93.5785725,134.432771 93.4457769,134.428933 93.3129813,134.420489 C93.28765,134.418954 93.0919106,134.420489 93.0742556,134.401299 L93.1824882,134.416651 C93.1302906,134.408974 93.0773263,134.401299 93.0258962,134.390552 C92.9000094,134.365989 92.7810299,134.328376 92.6574456,134.291531 C92.4563331,134.230122 92.8401355,134.398228 92.6574456,134.288461 C92.6121568,134.260827 92.5630299,134.237799 92.5177412,134.208629 C92.3342837,134.092721 92.5361645,134.231657 92.5353962,134.232426 C92.5277207,134.239334 92.41565,134.118052 92.3972275,134.100397 C92.3411926,134.035918 92.3404243,134.036686 92.3941568,134.1027 C92.4448187,134.171017 92.4463544,134.170249 92.397995,134.099629 C92.3695938,134.042827 92.336587,133.989094 92.3104882,133.929221 C92.0986287,133.451771 91.3663331,133.302855 90.9479882,133.572284 C90.45365,133.890841 90.3630725,134.424327 90.5910512,134.935552"/>
        <path fill="#000" fill-rule="nonzero" d="M96.7086382 132.120051C95.6232438 128.429404 93.9160888 124.973643 92.9312506 121.250756 92.6034831 120.012607 90.6813988 120.53765 91.0099337 121.780404 91.9955394 125.504059 93.7019269 128.959819 94.7873213 132.648932 95.1480956 133.877101 97.0717157 133.354361 96.7086382 132.120051M95.141955 146.498379C89.81861 147.108626 84.2150888 147.084062 79.2225817 144.900993 78.0588916 144.392838 77.0433493 146.108436 78.2162507 146.621196 83.5610888 148.957788 89.42099 149.146619 95.141955 148.491084 96.4008281 148.346774 96.4154124 146.352534 95.141955 146.498379"/>
        <path fill="#000" fill-rule="nonzero" d="M77.1519655,142.07866 C77.2425429,142.205315 77.3254444,142.335807 77.3945289,142.474744 C77.4375148,142.557646 77.4590078,142.637477 77.413719,142.505449 C77.4413528,142.585279 77.4697543,142.663576 77.4927824,142.744174 C77.5127401,142.811723 77.5288599,142.88004 77.544212,142.949124 C77.5649373,143.048146 77.573381,143.11723 77.5564937,142.975223 C77.5749162,143.129512 77.5825922,143.285336 77.5795218,143.44116 C77.5779866,143.512547 77.5726134,143.583167 77.5687754,143.654554 C77.5557261,143.925519 77.6148317,143.461117 77.5603317,143.728244 C77.5326979,143.868716 77.5027612,144.007653 77.4605429,144.144287 C77.4359796,144.227188 77.4060429,144.306251 77.3776416,144.388385 C77.4236979,144.255589 77.3975993,144.345399 77.359219,144.42523 C77.2909021,144.565702 77.2133739,144.702336 77.1266345,144.832829 C77.1135852,144.852019 76.9754162,145.042385 77.0521767,144.942596 C77.1281697,144.843576 76.9807894,145.02473 76.9654373,145.042385 C76.8602754,145.161364 76.7482049,145.273434 76.6299937,145.379364 C76.5762612,145.426956 76.5209937,145.472244 76.4657261,145.519068 C76.6261556,145.383202 76.4104584,145.555913 76.3897331,145.570498 C76.2707543,145.651864 76.1464021,145.728624 76.0197472,145.799244 C75.9445218,145.840695 75.8669937,145.881378 75.7886979,145.920526 C75.7672049,145.931272 75.5515078,146.029526 75.6689514,145.978096 C75.7863951,145.926667 75.5676274,146.017244 75.5438317,146.026456 C75.4624655,146.056393 75.3787965,146.084794 75.2951274,146.110893 C74.9896204,146.206843 74.6749021,146.272089 74.3563457,146.315076 C73.8389796,146.384928 73.511212,147.07654 73.6608951,147.540174 C73.8451204,148.110505 74.3310148,148.31085 74.8867612,148.235624 C76.4818457,148.020695 78.0270359,147.144857 78.8936627,145.767005 C79.7610571,144.386083 79.8424233,142.42485 78.8721697,141.073096 C78.5689655,140.650913 77.9909584,140.405279 77.5089021,140.71616 C77.0905571,140.985589 76.8265007,141.625772 77.1519655,142.07866"/>
        <path fill="#FFF" fill-rule="nonzero" d="M75.5529662 126.162127C75.5529662 126.162127 82.6686704 125.918796 84.481755 124.046606 86.2948394 122.175183 83.5867269 118.595071 80.0165929 118.350204 76.4479944 118.106106 70.9150929 119.407965 69.6132338 121.442888 68.3106071 123.477043 68.1732056 127.368803 75.5529662 126.162127M104.054854 122.127668C104.054854 122.127668 111.020876 121.884338 112.796347 120.012147 114.571051 118.140724 111.919741 114.560612 108.425601 114.315746 104.932228 114.071647 99.5144669 115.373506 98.2394737 117.408429 96.9652488 119.442584 96.83015 123.334344 104.054854 122.127668"/>
        <path fill="#FF7484" fill-rule="nonzero" d="M109.335137 125.559403C109.867088 125.494924 110.388291 125.403579 110.897214 125.231635 111.398461 125.062762 111.888961 124.844762 112.344918 124.578403 112.561383 124.451748 112.736397 124.224537 112.803179 123.981973 112.869193 123.744016 112.838489 123.426994 112.702622 123.214367 112.410165 122.76148 111.820644 122.57572 111.339355 122.857431 111.096791 123.000206 110.845784 123.126093 110.586334 123.237396 110.665397 123.204389 110.745228 123.170614 110.824291 123.136839 110.290806 123.36098 109.731989 123.513734 109.158588 123.592029 109.246862 123.579748 109.335137 123.567466 109.422644 123.55672 109.393474 123.560557 109.364306 123.563628 109.335137 123.566699 109.061869 123.599706 108.833122 123.656509 108.630474 123.858389 108.457763 124.031867 108.328038 124.315114 108.338784 124.563051 108.350299 124.820966 108.434735 125.088093 108.630474 125.267712 108.811629 125.434283 109.078756 125.590107 109.335137 125.559403M75.1024584 128.166576C74.7347754 128.264061 74.361719 128.338519 73.9855922 128.389949 74.0738669 128.378434 74.1613739 128.366921 74.2504162 128.354639 73.8589373 128.406068 73.4651556 128.433702 73.0706063 128.436005 72.8142261 128.43754 72.5470993 128.545772 72.3659444 128.727695 72.1932331 128.900406 72.0627401 129.183653 72.0742543 129.431589 72.09805 129.969681 72.5117894 130.431012 73.0706063 130.427972 73.9310922 130.423336 74.7992543 130.307428 75.6321063 130.087893 75.8731345 130.024949 76.1026486 129.844561 76.2277683 129.630399 76.352888 129.417005 76.4050852 129.102287 76.3283246 128.862794 76.160219 128.343893 75.6420852 128.023801 75.1024584 128.166576"/>
        <path fill="#000" fill-rule="nonzero" d="M107.871927 122.342828C111.077448 122.342828 111.082821 117.361835 107.871927 117.361835 104.667173 117.361835 104.6618 122.342828 107.871927 122.342828M78.7193394 126.207799C81.9248606 126.207799 81.9302338 121.227574 78.7193394 121.227574 75.5145859 121.227574 75.5092127 126.207799 78.7193394 126.207799"/>
        <path fill="#000" fill-rule="nonzero" d="M112.808859 111.557355C113.406824 114.163376 113.888112 117.199256 114.199761 119.556573 114.980416 125.447179 115.36038 131.442179 114.916704 137.376538 114.690261 140.404743 114.213578 143.422967 113.304733 146.32682 112.513331 148.858383 111.290535 151.216467 109.83362 153.460946 107.227599 157.472454 103.590683 160.800024 98.9650912 162.070411 91.7772325 164.04239 83.905437 161.049496 77.473669 157.610622 75.4195563 156.512946 73.5895845 159.636334 75.6467676 160.735545 82.3088169 164.297235 89.8873876 167.14582 97.5565349 166.046609 103.023422 165.263651 107.752641 162.1157 111.130106 157.822482 114.919007 153.007291 117.234106 147.419122 118.096127 141.360411 119.011112 134.926341 118.820746 128.392482 118.109176 121.947665 117.689296 118.148784 117.153507 114.323806 116.299162 110.594778 115.777957 108.325735 112.288422 109.28601 112.808859 111.557355M80.4847556 109.584378C75.7777979 108.112878 70.5765021 110.195393 68.1608472 114.483238 67.6964457 115.307646 67.9367063 116.497434 68.8102416 116.957998 69.6661218 117.410117 70.7898965 117.189815 71.2865373 116.309371 71.3886289 116.125913 71.4960937 115.944759 71.6104669 115.768977 71.6688049 115.680702 71.7294457 115.59473 71.7877838 115.507991 71.8768261 115.37673 71.8967838 115.35754 71.7885514 115.495709 72.0641218 115.144913 72.3703965 114.816378 72.6966289 114.513174 72.8516852 114.368864 73.01365 114.236068 73.1748472 114.100202 73.3805655 113.926723 72.955312 114.238371 73.1840584 114.097132 73.2723331 114.041864 73.3567697 113.975083 73.4435091 113.917512 73.8157979 113.668807 74.2072767 113.455413 74.6110373 113.262744 74.7637909 113.189054 74.7760726 113.199801 74.6141078 113.258139 74.7277134 113.217456 74.8397838 113.172167 74.9541571 113.132251 75.1829035 113.053188 75.415488 112.984104 75.6488401 112.92423 75.8844951 112.864357 76.1209176 112.816766 76.3596429 112.774547 76.4770866 112.754589 76.6152556 112.752287 76.417981 112.766871 76.5384951 112.75766 76.6597767 112.743843 76.7802909 112.736167 77.2945866 112.704695 77.8088824 112.72235 78.3216429 112.775315 78.6133331 112.806019 78.0944317 112.713906 78.3792134 112.789132 78.4943543 112.819836 78.6171711 112.833653 78.7353824 112.860519 79.0009739 112.918857 79.2627274 112.991779 79.5229457 113.073913 80.4264176 113.356393 81.5371429 112.740005 81.7482345 111.809667 81.9723754 110.826364 81.4527063 109.886815 80.4847556 109.584378"/>
        <path fill="#000" fill-rule="nonzero" d="M84.8212669,152.675226 C87.3543657,153.860409 90.2666612,154.086084 92.9294849,153.186451 C93.4391757,153.013739 93.7730837,152.500211 93.6249355,151.960584 C93.4883018,151.463944 92.9110624,151.091655 92.3990701,151.265134 C90.2513094,151.990521 87.8870837,151.919134 85.8275982,150.955021 C85.3401681,150.727043 84.75295,150.818388 84.4643299,151.311957 C84.2117882,151.74412 84.3315343,152.445711 84.8212669,152.675226"/>
        <path fill="#D8D8D8" fill-rule="nonzero" d="M52.5398422,166.125595 C52.5398422,166.125595 11.7615606,187.141102 7.00240563,215.423532 C2.24325071,243.705194 1.97842676,282.308081 1.97842676,282.308081 L12.8193211,292.620095 L0.317328169,335.353468 C-0.8363831,339.297426 1.24689859,343.462454 5.09567324,344.899412 C13.3666239,347.986722 27.3877084,353.115862 36.9751028,356.062701 C41.3297296,357.40294 45.9031239,354.777729 46.9271099,350.33713 C51.3700112,331.084813 62.3767084,280.853468 63.8489761,249.753926 C65.7004409,210.655166 52.5398422,166.125595 52.5398422,166.125595"/>
        <path fill="#FFA4AC" fill-rule="nonzero" d="M6.95496761,295.917652 C6.95496761,295.917652 11.2059676,319.343441 14.7952916,327.939089 C14.7952916,327.939089 9.31612257,331.717244 9.599369,339.463152 C9.599369,339.463152 4.87705916,337.762906 5.34913662,343.618969 C5.82121409,349.475033 10.1673972,355.142265 12.0564746,355.992772 C13.9447845,356.843279 16.5899535,354.292526 18.667862,355.803941 C20.746538,357.315356 23.4853549,357.293863 24.8079394,355.698779 C26.1297563,354.103694 26.7914324,356.36199 28.7749254,356.414188 C30.7584183,356.465617 29.924031,354.757694 32.5807141,355.139194 C35.2373972,355.519927 34.7799043,352.025786 32.6751296,342.485216 C30.5695873,332.944645 28.0188338,327.561427 28.0188338,327.561427 L26.9802634,311.597533 L6.95496761,295.917652 Z"/>
        <path fill="#005265" fill-rule="nonzero" d="M472.554301,366.559861 L458.702857,341.905904 L464.058443,366.559861 L417.370365,366.559861 C417.370365,366.559861 414.590865,348.544924 412.413167,324.921094 C410.243914,301.304939 410.46652,288.865889 410.46652,288.865889 L506.645971,290.886995 L525.827667,366.559861 L472.554301,366.559861 Z"/>
        <polygon fill="#C55518" fill-rule="nonzero" points="408.653 247.576 389.753 264.227 394.439 233.827"/>
        <path fill="#00B300" fill-rule="nonzero" d="M453.387343,172.893804 C453.387343,172.893804 433.955406,172.145389 416.833962,192.687283 C399.713286,213.22841 386.757638,226.396684 386.757638,226.396684 L408.652821,247.576459 L415.418497,241.918438 C415.418497,241.918438 412.547652,274.036593 410.466673,288.869804 C410.466673,288.869804 417.417343,300.3931 432.393328,303.382924 C447.369314,306.373516 477.275229,299.957867 487.954927,296.223466 C498.635391,292.488297 506.646124,290.886304 506.646124,290.886304 L509.049497,243.091339 L541.358018,233.969882 C541.358018,233.969882 531.478166,202.772854 522.133335,190.489628 C512.787737,178.207171 498.212441,171.090699 490.948589,168.641269 C483.683201,166.191839 453.387343,172.893804 453.387343,172.893804"/>
        <path fill="#005265" fill-rule="nonzero" d="M389.401733,160.432955 L405.047071,217.038497 C405.394796,218.295835 406.391148,219.268391 407.655394,219.587716 L429.446951,225.080701 C431.941669,225.709371 434.279028,223.612272 433.922859,221.063821 L426.269831,166.332004 C426.06488,164.864343 424.987929,163.669948 423.550204,163.314546 L393.766338,155.947835 C391.075112,155.282321 388.663296,157.76092 389.401733,160.432955"/>
        <path fill="#C55518" fill-rule="nonzero" d="M392.389714,198.825288 L393.502743,192.422689 C393.502743,192.422689 387.658193,188.266872 385.245609,185.195683 C382.833791,182.124493 381.256362,178.969633 382.926672,174.980387 C384.596214,170.990372 389.699256,173.588717 398.327911,175.629781 C406.956566,177.670844 412.523243,179.990549 412.244601,183.423281 C411.966728,186.856013 411.873848,187.784049 406.492933,187.784049 C401.111249,187.784049 396.008207,185.858894 396.008207,185.858894 L398.22582,192.358211 C398.22582,192.358211 404.07958,194.835274 406.677926,196.041183 C409.276271,197.247091 412.430362,201.689224 416.513256,205.035985 C420.595383,208.381211 420.038869,214.875922 413.822799,213.39214 C413.822799,213.39214 415.678101,215.525316 415.12082,218.123661 C414.565073,220.721239 411.966728,221.463513 411.966728,221.463513 C411.966728,221.463513 413.914911,225.484999 412.709003,227.047077 C411.502327,228.607619 410.76082,230.463689 403.894588,225.917161 C397.029122,221.370633 395.080939,218.030781 395.080939,218.030781 C395.080939,218.030781 388.182467,212.669056 390.286474,205.747556 L392.389714,198.825288 Z"/>
        <path fill="#000" fill-rule="nonzero" d="M399.373851 203.987129C403.997139 206.161756 408.120717 209.213756 411.542703 213.009566 412.610443 214.195516 414.356745 212.44077 413.292076 211.260193 409.745738 207.325446 405.415674 204.104572 400.622745 201.850115 400.017872 201.566101 399.287879 201.681241 398.929407 202.293791 398.615456 202.831115 398.765907 203.701579 399.373851 203.987129M389.128926 185.422894C391.564538 186.603471 394.126806 187.500034 396.778116 188.050407 397.409855 188.181668 398.145221 187.866183 398.29951 187.186084 398.440749 186.566626 398.113749 185.804394 397.435186 185.663154 396.186291 185.405239 394.954284 185.073633 393.745306 184.665267 393.141967 184.461084 392.543235 184.238478 391.953714 183.998217 391.676609 183.884612 391.576052 183.840859 391.244446 183.691943 390.953524 183.560683 390.664904 183.424816 390.378588 183.285879 389.796743 183.004168 389.014552 183.107795 388.685249 183.729556 388.392024 184.284534 388.507165 185.120457 389.128926 185.422894M399.384367 214.421729C403.254634 215.765039 406.751078 218.031779 409.591987 220.977849 410.698874 222.126188 412.448247 220.375279 411.34136 219.227709 408.19955 215.96999 404.314698 213.518257 400.042205 212.036011 399.411233 211.816476 398.688916 212.285483 398.520043 212.900335 398.333515 213.580434 398.751093 214.202194 399.384367 214.421729M480.322547 108.143583C480.322547 108.143583 436.331836 115.500315 433.917716 108.089083 432.138406 102.62373 435.337787 75.6884486 478.068089 82.9523006 491.901111 85.3027094 503.303893 96.2848432 504.540505 112.270998 505.399456 123.381322 503.14116 138.206089 497.583695 147.329083 491.306216 157.634956 486.821864 156.776005 486.821864 156.776005L480.322547 108.143583z"/>
        <path fill="#C55518" fill-rule="nonzero" d="M453.238964,163.714776 L453.428562,175.45991 C453.428562,175.45991 457.137633,179.504424 470.147781,179.112945 C487.098049,178.602488 490.948359,168.641269 490.948359,168.641269 L490.507753,154.459755 L453.238964,163.714776 Z"/>
        <path fill="#C55518" fill-rule="nonzero" d="M490.109519,157.065699 C490.615371,154.801262 491.325406,147.311734 491.325406,147.311734 C492.378561,147.414594 496.346315,147.324016 499.54416,144.55603 C502.861751,141.686721 507.379111,132.576009 502.333639,127.918178 C499.359167,125.172453 496.128315,123.935072 492.691744,128.31503 C488.817639,133.251502 485.064047,132.972094 485.017991,126.970953 C484.972702,120.969812 487.811307,106.780622 481.782533,103.859115 C475.754526,100.936072 469.975991,104.180741 458.793512,103.377826 C453.916146,103.027798 450.455779,101.989995 446.369815,100.860847 C441.711216,99.5751074 436.600498,104.295883 435.656343,110.214889 C435.137441,113.464164 434.841913,138.601713 435.745385,144.223657 C436.566723,149.338213 442.352167,168.788572 462.114174,167.825995 C472.193604,167.33396 490.109519,157.065699 490.109519,157.065699"/>
        <path fill="#000" fill-rule="nonzero" d="M432.8172,103.139178 C432.554679,107.803149 432.077996,112.448699 431.880721,117.118044 C431.575214,124.341212 431.617433,131.620417 432.517834,138.802903 C433.245524,144.596022 434.389256,150.519635 437.101207,155.747797 C439.310376,160.006473 442.437601,163.796143 446.269489,166.683874 C452.507052,171.386994 460.333559,172.479297 467.856094,170.824339 C469.09501,170.551839 469.819629,169.112579 469.4957,167.935839 C469.144904,166.658544 467.850721,166.022966 466.607967,166.296234 C464.801024,166.693854 463.352552,166.891128 461.462707,166.916459 C460.669771,166.927973 459.875299,166.898804 459.085433,166.831255 C458.954939,166.819741 458.011552,166.708438 458.39689,166.762938 C457.935559,166.697691 457.475763,166.614022 457.019038,166.518072 C456.357362,166.379903 455.701059,166.209494 455.055503,166.009149 C454.70701,165.901684 454.360052,165.784241 454.016933,165.659121 C453.881066,165.609994 453.746735,165.558565 453.612404,165.506367 C453.478841,165.454938 453.345278,165.401206 453.213249,165.346706 C453.412827,165.43191 453.436622,165.441121 453.283869,165.374339 C452.058003,164.829339 450.882799,164.183016 449.769003,163.436135 C449.4942,163.25191 449.222467,163.060776 448.955341,162.865037 C448.850179,162.787509 448.745017,162.708445 448.639855,162.629382 C449.075855,162.955614 448.559256,162.563367 448.500151,162.516544 C448.004278,162.115854 447.523756,161.696741 447.059355,161.262276 C446.176609,160.436333 445.349897,159.552051 444.577686,158.62248 C444.413418,158.423671 444.252989,158.222557 444.091791,158.021445 C443.868418,157.742804 444.426467,158.476635 444.097933,158.030656 C444.032686,157.941614 443.965137,157.853339 443.89989,157.765065 C443.566749,157.316783 443.24589,156.85929 442.937312,156.394889 C442.427622,155.628051 441.948637,154.840488 441.505728,154.032966 C441.146489,153.377431 440.807974,152.710382 440.500165,152.029516 C440.438756,151.893649 440.381954,151.754712 440.318243,151.619614 C440.172397,151.311037 440.579228,152.285128 440.388094,151.779276 C440.094101,151.003994 439.796271,150.234086 439.536052,149.446522 C438.472918,146.221811 437.791284,142.880424 437.310763,139.523684 C437.239376,139.027044 437.108116,137.946255 437.025214,137.176346 C436.928496,136.267501 436.845594,135.357889 436.774207,134.446741 C436.6322,132.629051 436.537784,130.807522 436.480214,128.985227 C436.374284,125.594712 436.39808,122.201128 436.511686,118.811382 C436.688235,113.574009 437.218651,108.368107 437.512644,103.139178 C437.584031,101.872628 436.383496,100.791072 435.165306,100.791072 C433.834278,100.791072 432.888588,101.86879 432.8172,103.139178"/>
        <path fill="#000" fill-rule="nonzero" d="M454.016318 112.241752C451.996748 110.067893 449.138952 108.610978 446.138382 108.593322 443.225318 108.576435 440.316861 109.97271 438.488424 112.234844 437.718516 113.18821 437.487466 114.635914 438.488424 115.554738 439.345072 116.340766 440.984678 116.575654 441.809854 115.554738 442.164488 115.116435 442.557501 114.747984 442.969706 114.365717 443.213804 114.140041 442.671107 114.554548 442.951283 114.381069 443.059516 114.314288 443.160839 114.235991 443.267537 114.167674 443.480163 114.031041 443.700466 113.905154 443.925374 113.790012 443.972966 113.765449 444.339882 113.575083 444.070452 113.708646 443.774924 113.856027 444.246234 113.642633 444.31148 113.620372 444.5456 113.537471 444.784326 113.467618 445.025354 113.40928 445.1451 113.379344 445.267149 113.357083 445.387663 113.330984 445.758417 113.248851 445.34698 113.284161 445.310903 113.33252 445.378452 113.241943 446.043199 113.287999 446.138382 113.288766 446.263501 113.289534 446.388621 113.293372 446.514509 113.301048 446.572079 113.304886 446.991191 113.324844 446.672635 113.304118 446.359452 113.282626 446.76398 113.320238 446.827691 113.33252 446.952044 113.355548 447.075628 113.381646 447.198445 113.411583 447.445614 113.470689 447.689712 113.541309 447.929973 113.62421 448.081191 113.675639 448.231643 113.730139 448.379022 113.791548 448.187121 113.712484 448.12648 113.676407 448.346016 113.791548 448.811952 114.036414 449.249488 114.300471 449.683952 114.596766 449.413755 114.411773 449.597212 114.524611 449.755339 114.657407 449.857431 114.743379 449.95722 114.831654 450.056241 114.921463 450.279614 115.125646 450.489938 115.340576 450.696424 115.562414 451.534649 116.464351 453.180396 116.473562 454.016318 115.562414 454.902903 114.596766 454.910579 113.204329 454.016318 112.241752M464.714054 117.926793C464.898279 117.729518 465.086343 117.536082 465.285921 117.354159 465.409505 117.240554 465.539998 117.136927 465.665117 117.026391 465.92073 116.802251 465.374962 117.206011 465.66435 117.032533 466.144871 116.74468 466.598526 116.45299 467.104378 116.207356 466.921688 116.295631 466.841857 116.307145 467.078279 116.225779 467.198794 116.184328 467.319307 116.141343 467.440589 116.102962 467.712322 116.018526 467.98866 115.947906 468.268068 115.893406 468.327174 115.881891 468.738611 115.824321 468.420822 115.861166 468.101498 115.897244 468.516772 115.858863 468.575111 115.855026 468.855287 115.835835 469.13623 115.833533 469.415639 115.848884 469.446343 115.85042 469.776413 115.863469 469.777949 115.877286 469.777949 115.875751 469.292054 115.786709 469.691977 115.871912 469.929167 115.922574 470.164822 115.972469 470.397406 116.040018 470.544019 116.083004 470.687561 116.130596 470.830336 116.182026 470.887139 116.201983 471.249449 116.363948 470.973111 116.232688 470.693702 116.099891 471.059083 116.281046 471.108209 116.307145 471.217977 116.361645 471.325441 116.419216 471.432906 116.479856 471.674702 116.61649 471.905751 116.769244 472.134498 116.926603 472.346357 117.073216 472.24273 117.030997 472.103026 116.900504 472.194371 116.985709 472.294928 117.062469 472.38704 117.146138 472.598132 117.337272 472.797709 117.539152 472.987307 117.751011 473.072512 117.846194 473.151576 117.945216 473.236012 118.041166 473.467061 118.30599 472.918991 117.603631 473.273624 118.105645 473.980589 119.106603 475.356906 119.675399 476.486822 118.947709 477.480104 118.307526 478.086512 116.808391 477.328885 115.736046 475.486632 113.12849 472.809991 111.424406 469.596794 111.164955 466.540188 110.917786 463.447505 112.403871 461.39416 114.606899 460.555934 115.505765 460.436956 117.048652 461.39416 117.926793 462.303772 118.762716 463.819794 118.887067 464.714054 117.926793M461.368522 135.296173L461.359311 135.370631C461.37543 135.250884 461.390783 135.132673 461.40767 135.013694 461.364684 135.312293 461.285621 135.592469 461.191972 135.878018 461.109839 136.126722 461.323233 135.611659 461.213466 135.828124 461.180459 135.893371 461.150522 135.959384 461.115212 136.023096 461.08067 136.086039 461.044593 136.148216 461.006212 136.209624 460.980113 136.251074 460.793585 136.50592 460.948641 136.307878 461.097557 136.116744 460.931754 136.324765 460.897212 136.362378 460.850388 136.413807 460.802796 136.463701 460.751367 136.512061 460.714522 136.548138 460.513409 136.711638 460.703007 136.567328 460.896444 136.420716 460.672304 136.584983 460.629317 136.611849 460.567141 136.650997 460.502662 136.687074 460.437416 136.720082 460.174128 136.852878 460.617804 136.662511 460.489613 136.700124 460.337628 136.743878 460.194853 136.786096 460.037494 136.810659 460.155705 136.793772 460.274684 136.77842 460.392895 136.7623 460.202529 136.783793 460.016768 136.783793 459.826402 136.759997 459.945381 136.776884 460.06436 136.792237 460.183339 136.808356 460.076641 136.790701 459.973783 136.769209 459.870923 136.736969 459.611472 136.654835 459.953057 136.783793 459.956128 136.780722 459.949987 136.786096 459.845593 136.72392 459.833311 136.717779 459.784951 136.690145 459.741198 136.656371 459.693606 136.629504 459.574628 136.561955 459.954593 136.861321 459.781113 136.696286 459.705888 136.626434 459.638339 136.551209 459.564649 136.479821 459.454881 136.373124 459.730451 136.719314 459.646015 136.589589 459.614543 136.540462 459.580001 136.494406 459.549296 136.444511 459.524733 136.404596 459.50017 136.36468 459.478677 136.323229 459.451811 136.274871 459.364304 136.075293 459.454113 136.292526 459.539317 136.499779 459.471768 136.333976 459.455649 136.28792 459.434923 136.231884 459.417268 136.175082 459.401149 136.117511 459.369677 136.001603 459.348184 135.884927 459.332832 135.76518 459.348184 135.884927 459.365071 136.003138 459.380423 136.122117 459.365839 135.977039 459.362001 135.834265 459.369677 135.68842 459.408824 134.986828 458.724888 134.315941 458.027902 134.346645 457.267205 134.381188 456.729113 134.936166 456.686128 135.68842 456.574824 137.684962 458.281212 139.661546 460.358353 139.449688 461.360846 139.346828 462.294254 138.896244 462.929832 138.097166 463.283698 137.65349 463.527796 137.222096 463.738888 136.693983 463.919276 136.240328 463.992198 135.779765 464.051304 135.296173 464.091219 134.97992 463.873987 134.562343 463.658289 134.347412 463.426472 134.114828 463.044205 133.939046 462.710296 133.954399 462.363339 133.969751 462.003332 134.084124 461.761536 134.347412 461.504388 134.627589 461.415346 134.922349 461.368522 135.296173"/>
        <path fill="#000" fill-rule="nonzero" d="M456.77563,135.736165 C456.77256,135.761496 456.770257,135.786827 456.767187,135.812926 C456.784074,135.693179 456.799426,135.5742 456.815546,135.455989 C456.800961,135.556545 456.781771,135.655566 456.75337,135.752284 C456.738017,135.803714 456.653581,136.017876 456.742623,135.803714 C456.825524,135.603369 456.752602,135.769172 456.728806,135.812157 C456.697334,135.869728 456.513109,136.133017 456.651278,135.951862 C456.781771,135.782221 456.671236,135.919622 456.638229,135.954933 C456.597546,135.999454 456.553793,136.039369 456.509271,136.080052 C456.377243,136.205172 456.549187,136.032461 456.597546,136.015573 C456.553793,136.030926 456.507736,136.075446 456.467821,136.10001 C456.424067,136.126876 456.378011,136.149137 456.334257,136.174467 C456.170757,136.268116 456.419461,136.156812 456.44556,136.133784 C456.311229,136.252763 455.965039,136.277327 455.79156,136.303426 C455.910539,136.288073 456.02875,136.271186 456.148496,136.255834 C455.880602,136.289609 455.615011,136.290376 455.347884,136.255834 C455.466862,136.271954 455.585074,136.288073 455.704053,136.303426 C455.583539,136.285771 455.46456,136.262743 455.347116,136.228967 C455.325623,136.222827 455.146771,136.180609 455.13756,136.160651 C455.142933,136.171397 455.433088,136.300355 455.255771,136.20901 C455.145236,136.152207 455.040074,136.090799 454.934912,136.024784 C454.713074,135.885848 455.153679,136.236644 454.968687,136.04858 C454.924166,136.004827 454.876574,135.964911 454.833588,135.918855 C454.820539,135.906573 454.719215,135.792967 454.719983,135.7922 C454.730729,135.785291 454.935679,136.093869 454.786764,135.870496 C454.721517,135.772243 454.672391,135.66708 454.614053,135.564989 C454.541898,135.439101 454.728426,135.896594 454.651666,135.656334 C454.634011,135.600299 454.613285,135.545031 454.59563,135.487461 C454.558017,135.361573 454.531919,135.233383 454.511961,135.10289 C454.527313,135.221869 454.544201,135.34008 454.559553,135.459827 C454.532687,135.244897 454.529616,135.033806 454.552644,134.818876 C454.537293,134.937855 454.520405,135.056834 454.505053,135.175812 C454.528081,135.01001 454.566461,134.852651 454.623264,134.694524 C454.860454,134.032848 454.356138,133.196157 453.686785,133.044172 C452.932229,132.872996 452.288976,133.272918 452.035666,133.981418 C451.687172,134.954743 451.861419,136.043974 452.312771,136.951284 C452.767194,137.865503 453.659151,138.540996 454.633243,138.816566 C455.645715,139.102116 456.757207,138.96932 457.687546,138.491869 C458.184187,138.237024 458.59025,137.837101 458.908039,137.384214 C459.254996,136.889876 459.398539,136.327989 459.458412,135.736165 C459.491419,135.414538 459.285701,135.006939 459.065398,134.787404 C458.833581,134.55482 458.451313,134.379038 458.116638,134.39439 C457.770447,134.409743 457.41044,134.524116 457.168644,134.787404 C456.914567,135.06451 456.813243,135.363109 456.77563,135.736165"/>
        <path fill="#000" fill-rule="nonzero" d="M454.569532 134.862093C455.296454 131.317289 456.714222 127.962853 457.591595 124.457198 458.00994 122.782283 455.423109 122.066874 455.003229 123.744093 454.126623 127.249747 452.709623 130.604184 451.981933 134.148219 451.836088 134.857487 452.187651 135.598226 452.919947 135.799339 453.583159 135.981261 454.423687 135.575198 454.569532 134.862093M472.491281 138.02102C472.385351 139.834104 472.541943 141.671752 473.311084 143.338224 473.965084 144.754456 475.26464 146.061689 476.841302 146.361055 477.528309 146.492316 478.322013 146.169154 478.490887 145.424576 478.642105 144.7629 478.292077 143.914696 477.554407 143.773456 477.410866 143.74659 477.271161 143.712816 477.132993 143.665991 477.088471 143.650639 476.914224 143.556224 477.067746 143.643731 477.229711 143.736611 477.040879 143.623773 477.007872 143.606118 476.984077 143.593837 476.622534 143.404238 476.630978 143.371231 476.627907 143.381978 476.829021 143.540872 476.664753 143.395027 476.601041 143.338991 476.536562 143.282189 476.475154 143.223851 476.362316 143.116386 476.259457 143.000478 476.156598 142.883801 476.058344 142.771731 476.110541 142.817788 476.171183 142.906829 476.131267 142.848491 476.088281 142.792456 476.049133 142.733351 475.867211 142.464689 475.71676 142.179907 475.583196 141.884379 475.639232 142.007196 475.639232 142.026386 475.59164 141.888984 475.564774 141.810689 475.535605 141.733928 475.510274 141.654865 475.451168 141.478316 475.401274 141.298696 475.355985 141.117541 475.312232 140.935618 475.273851 140.752161 475.241612 140.567167 475.227028 140.485034 475.214746 140.4029 475.202464 140.319231 475.223189 140.458935 475.213978 140.415182 475.203232 140.301576 475.134147 139.540111 475.130309 138.783252 475.17483 138.02102 475.215513 137.318661 474.528506 136.647773 473.833056 136.679245 473.071591 136.71302 472.535802 137.269534 472.491281 138.02102M458.816079 153.165495C461.754474 154.048241 464.974579 153.968411 467.840051 152.853847 468.491749 152.59977 469.016023 151.941164 468.777298 151.202728 468.572347 150.569453 467.827002 149.992981 467.126946 150.266249 466.479854 150.518023 465.818178 150.721439 465.138847 150.865749 464.994538 150.896453 464.848693 150.924087 464.703615 150.949417 464.606129 150.967072 464.508643 150.982424 464.411157 150.997777 464.523995 150.984728 464.495594 150.987798 464.328256 151.007756 464.009699 151.043066 463.689607 151.069164 463.369516 151.080678 462.702467 151.105241 462.030044 151.082213 461.368368 150.997009 461.56334 151.02234 461.171094 150.965538 461.135016 150.959396 460.938509 150.925622 460.74277 150.887241 460.547798 150.845791 460.204678 150.769798 459.865396 150.679221 459.529185 150.577896 458.85753 150.376016 458.03696 150.819693 457.878833 151.515143 457.713798 152.238228 458.096833 152.949798 458.816079 153.165495"/>
        <path fill="#FFF" fill-rule="nonzero" d="M452.958557,121.898999 C452.494924,119.858703 450.694889,118.820133 450.06929,118.4939 C448.709093,117.786935 447.18079,117.062316 444.632339,117.273407 C439.731945,117.677935 439.248354,119.325217 439.0411,120.512703 C438.869924,121.496006 439.226861,123.377407 440.590896,123.895541 C441.326262,124.174949 442.679551,123.775027 445.437557,123.917034 C448.055093,124.051365 450.929776,125.145203 451.733459,124.919527 C452.537143,124.694618 453.372297,123.720527 452.958557,121.898999"/>
        <path fill="#000" fill-rule="nonzero" d="M442.635644,124.774526 C445.820439,124.774526 445.825812,119.825772 442.635644,119.825772 C439.451616,119.825772 439.446243,124.774526 442.635644,124.774526"/>
        <path fill="#FFF" fill-rule="nonzero" d="M476.524204,124.246797 C476.154218,122.395333 474.369535,121.086565 473.721676,120.795643 C472.310049,120.163903 470.235979,119.527557 467.553965,119.733276 C463.156352,120.07179 462.134669,122.152001 461.953514,123.265797 C461.800761,124.200741 462.083239,125.947811 463.501774,126.402234 C464.267078,126.646333 465.696359,126.241804 468.587162,126.310121 C471.329817,126.376135 474.321944,127.335643 475.16938,127.106896 C476.018352,126.877382 476.867324,125.958557 476.524204,124.246797"/>
        <path fill="#000" fill-rule="nonzero" d="M466.627849 127.114879C469.811877 127.114879 469.81725 122.166126 466.627849 122.166126 463.443053 122.166126 463.437679 127.114879 466.627849 127.114879M473.503293 141.765323C467.89056 145.079077 460.84394 146.545204 454.847405 143.309746 453.328313 142.489176 451.971954 144.805809 453.494116 145.626379 460.345764 149.324704 468.393341 147.89926 474.858116 144.082724 476.343433 143.204584 474.99475 140.884879 473.503293 141.765323"/>
        <path fill="#007792" fill-rule="nonzero" d="M456.523011,86.5734038 C454.062835,85.6361568 451.644878,84.870087 449.296004,84.2621432 C455.524356,80.5492345 463.989511,78.6693683 475.420694,81.2009317 C511.056018,89.0903825 504.905962,122.858122 504.905962,122.858122 C504.905962,122.858122 497.878533,116.126988 488.128406,110.715368 C482.078906,103.483756 470.818131,92.0218681 456.523011,86.5734038"/>
        <path fill="#009ABD" fill-rule="nonzero" d="M449.296004,84.2623731 C451.644878,84.8703169 454.062835,85.6363876 456.523011,86.5736337 C470.818131,92.0213313 482.078906,103.483986 488.128406,110.715599 C482.942462,107.837078 476.987378,105.331612 470.907173,104.412789 C449.355878,101.155838 435.577356,106.934373 433.305244,107.98369 C433.216201,107.949916 433.120251,107.912303 433.025835,107.875457 C429.801891,106.608909 424.212955,102.991951 421.933934,94.3832538 C418.926455,83.0150145 430.852744,79.4924718 449.296004,84.2623731"/>
        <path fill="#000" fill-rule="nonzero" d="M499.739055,130.677797 C498.454083,130.307044 497.040154,130.598734 495.953991,131.364804 C494.792604,132.183072 494.047259,133.380537 493.628914,134.726149 C492.87359,137.158691 492.663266,141.002093 495.429717,142.276318 C496.086788,142.579522 496.874351,142.462846 497.264294,141.795029 C497.603576,141.216255 497.444682,140.263656 496.783006,139.959684 C496.683217,139.912861 496.589569,139.862199 496.492851,139.807699 C496.416857,139.756269 496.419161,139.76241 496.500527,139.826121 C496.46752,139.79772 496.43528,139.768551 496.403041,139.739382 C496.382316,139.717889 496.162012,139.479931 496.244146,139.582022 C496.316301,139.670297 496.123633,139.390121 496.1244,139.391656 C496.079111,139.314896 496.037661,139.235065 496.000048,139.156001 C496.087555,139.342529 495.979322,139.083079 495.966273,139.043163 C495.900259,138.832839 495.850365,138.576459 495.839618,138.421403 C495.764393,137.355966 495.884139,136.581452 496.173527,135.582029 C496.399203,134.806748 496.730041,134.148143 497.366386,133.636149 C497.216703,133.756663 497.446217,133.587022 497.476154,133.5686 C497.570569,133.507959 497.670357,133.456529 497.766309,133.398959 C497.805456,133.379001 497.846139,133.358276 497.886055,133.339086 C497.789337,133.375163 497.784731,133.377466 497.872238,133.345227 C497.975865,133.306079 498.081027,133.272304 498.187724,133.244671 C498.272161,133.22241 498.358133,133.20322 498.444104,133.188635 C498.209217,133.227783 498.491696,133.194009 498.542357,133.193241 C498.649822,133.191706 498.761126,133.191706 498.867822,133.207057 C498.630633,133.173283 498.971449,133.250044 499.025182,133.265396 C499.7214,133.467276 500.485935,133.020529 500.676301,132.328149 C500.870506,131.620417 500.436809,130.880445 499.739055,130.677797"/>
        <path fill="#FFF" fill-rule="nonzero" d="M435.982806,124.264068 C435.116179,108.475956 422.301771,93.0348006 407.308129,89.6542657 C392.182461,86.2437938 380.449609,96.5158926 381.322376,112.412238 C382.006312,124.862801 390.120672,137.096132 400.874059,143.37054 C402.681771,144.42523 404.207003,146.117033 405.173418,148.060611 L408.547045,154.837033 C409.547235,156.846624 412.016622,157.382413 412.817235,155.762766 L415.539165,150.262104 C416.306771,148.710772 417.676179,147.672202 419.395616,147.388188 C429.713771,145.684871 436.666743,136.717702 435.982806,124.264068"/>
        <path fill="#000" fill-rule="nonzero" d="M416.174972 225.447847C415.269198 230.900917 414.529226 236.380087 413.955057 241.877678 413.885972 242.543186 414.573747 243.115059 415.192438 243.115059 415.91936 243.115059 416.359966 242.544728 416.429817 241.877678 416.980959 236.598854 417.692529 231.341523 418.560691 226.105685 418.671226 225.441706 418.387212 224.781566 417.696367 224.583523 417.106078 224.41465 416.28474 224.790009 416.174972 225.447847M497.915224 222.791164C499.838076 229.798636 501.642717 236.836812 503.329914 243.903389 503.699133 245.45165 506.086386 244.796115 505.715633 243.245551 504.029203 236.178206 502.223794 229.14003 500.300943 222.134094 499.881062 220.600417 497.492273 221.250579 497.915224 222.791164"/>
        <path fill="#000" fill-rule="nonzero" d="M505.032847,244.894368 C506.19884,244.635685 507.364833,244.376234 508.530826,244.117551 C509.163333,243.977079 509.593193,243.209474 509.39515,242.595389 C509.179453,241.931411 508.550784,241.580615 507.872221,241.731066 C506.706995,241.990516 505.541002,242.249967 504.375009,242.50865 C503.742502,242.649122 503.312643,243.416728 503.511453,244.030812 C503.725615,244.694791 504.355051,245.044819 505.032847,244.894368"/>
        <path fill="#C55518" fill-rule="nonzero" d="M544.717444,256.301218 C544.973824,268.363373 507.740346,311.125148 507.740346,311.125148 L495.890817,301.053394 L497.640191,297.920796 L501.263289,291.458324 L522.145233,257.435739 L516.245416,241.011282 L541.182621,233.970035 C541.182621,233.970035 544.454156,244.246739 544.717444,256.301218"/>
        <path fill="#000" fill-rule="nonzero" d="M492.735421 298.709204C497.823879 304.836232 503.144154 311.120619 510.374231 314.782098 511.791231 315.499809 513.045499 313.365866 511.622357 312.645084 504.579576 309.078788 499.440456 302.927196 494.484794 296.959062 493.466182 295.732429 491.724484 297.491781 492.735421 298.709204M446.391231 338.707905C451.206421 341.346933 456.477569 342.950461 461.938316 343.489321 462.604597 343.553799 463.175696 342.872933 463.175696 342.251172 463.175696 341.528088 462.606133 341.079806 461.938316 341.013793 456.929689 340.520222 452.051555 338.988081 447.640893 336.570891 446.243851 335.805588 444.993421 337.941834 446.391231 338.707905"/>
        <path fill="#D8D8D8" fill-rule="nonzero" d="M100.94774,172.738671 C100.94774,172.738671 110.102205,229.168432 114.838332,266.808741 C119.575226,304.449819 121.070522,360.785932 121.070522,360.785932 L147.743283,348.072847 C147.743283,348.072847 137.058979,291.735967 129.064367,240.385453 C121.070522,189.034171 120.82105,183.365404 113.342268,177.72427 C105.864254,172.083136 100.94774,172.738671 100.94774,172.738671"/>
        <path fill="#005265" fill-rule="nonzero" d="M155.385488,153.858873 L141.897889,202.657099 C141.597755,203.74019 140.739572,204.579951 139.649572,204.855521 L120.863191,209.590112 C118.713128,210.13281 116.698163,208.323563 117.005206,206.127444 L123.602776,158.944261 C123.778557,157.680014 124.707361,156.649888 125.946276,156.342845 L151.622684,149.993211 C153.942389,149.41981 156.021833,151.556056 155.385488,153.858873"/>
        <path fill="#FFA8B5" fill-rule="nonzero" d="M152.809096,186.955879 L151.849589,181.437562 C151.849589,181.437562 156.888152,177.854379 158.967596,175.206139 C161.047039,172.558667 162.407237,169.839041 160.967209,166.400167 C159.527948,162.960527 155.128033,165.2004 147.689934,166.959752 C140.251835,168.719104 135.452765,170.719484 135.692257,173.678604 C135.933286,176.638491 136.012349,177.438337 140.651757,177.438337 C145.290399,177.438337 149.690314,175.778006 149.690314,175.778006 L147.778209,181.380759 C147.778209,181.380759 142.731201,183.517006 140.491328,184.556344 C138.252222,185.596449 135.532596,189.425266 132.013124,192.309928 C128.493652,195.193822 128.974173,200.792738 134.333596,199.513139 C134.333596,199.513139 132.733906,201.35309 133.213659,203.592196 C133.693412,205.832069 135.933286,206.472252 135.933286,206.472252 C135.933286,206.472252 134.252997,209.938759 135.293103,211.284372 C136.332441,212.629984 136.972624,214.229674 142.890863,210.311048 C148.809871,206.391654 150.490159,203.512365 150.490159,203.512365 C150.490159,203.512365 156.4368,198.890611 154.622948,192.922478 L152.809096,186.955879 Z"/>
        <path fill="#000" fill-rule="nonzero" d="M145.712428 189.563743C141.579639 191.506552 137.847541 194.283749 134.790167 197.675031 133.872879 198.693644 135.376618 200.205827 136.298512 199.184144 139.247654 195.911841 142.802435 193.280489 146.788611 191.405228 147.309816 191.160362 147.444146 190.411179 147.170879 189.94601 146.859231 189.412524 146.235935 189.318109 145.712428 189.563743M154.543654 173.560239C153.555746 174.039226 152.715985 174.386183 151.64057 174.749261 150.598929 175.101591 149.536562 175.386373 148.458844 175.609746 147.911541 175.723352 147.544626 176.398078 147.715034 176.922352 147.901562 177.501127 148.440422 177.788979 149.026872 177.667697 151.312034 177.192549 153.520436 176.420338 155.619838 175.401726 156.123387 175.158394 156.298401 174.401535 156.002105 173.942507 155.669732 173.425909 155.081746 173.299254 154.543654 173.560239M146.212446 198.343999C142.528707 199.622062 139.180411 201.736049 136.471531 204.54395 135.518165 205.532626 137.024207 207.043274 137.979876 206.053062 140.429306 203.513056 143.443693 201.558732 146.778939 200.40195 147.323172 200.213119 147.683946 199.671189 147.524284 199.089344 147.379207 198.560464 146.758982 198.154401 146.212446 198.343999M1.97827324 282.308388L1.97827324 291.274789C1.97827324 293.189198 2.86255493 294.996141 4.37397043 296.172113L24.7531324 312.017796C27.7859422 314.375881 32.2119563 313.439402 34.0281112 310.054261L36.9849282 304.542085 1.97827324 282.308388zM11.8522148 348.5166C11.90825 348.273269 11.9834754 348.037614 12.0671444 347.801959 12.1531162 347.565537 11.9750317 347.993093 12.0817289 347.765114 12.1078274 347.708311 12.1331584 347.651509 12.1607922 347.596241 12.2160599 347.484171 12.2743979 347.375171 12.3373416 347.266938 12.3995176 347.159473 12.4662993 347.054311 12.5361514 346.951452 12.5714612 346.900022 12.6075388 346.849361 12.6428486 346.798699 12.7825528 346.602191 12.5553416 346.899255 12.6474543 346.794093 12.8209331 346.596818 12.9898063 346.401846 13.1847782 346.224529 13.2316021 346.182311 13.2784261 346.140093 13.3275528 346.100178 13.3643979 346.069473 13.5064049 345.942818 13.3344612 346.088663 13.430412 346.007297 13.5409472 345.938212 13.6468767 345.869896 13.8610388 345.730191 14.0851796 345.613516 14.3154612 345.501445 14.5449754 345.390143 14.1189543 345.572833 14.3584472 345.482255 14.4060388 345.4646 14.4536303 345.446178 14.5012218 345.42929 14.63325 345.381699 14.7668134 345.33948 14.901912 345.302635 15.0247289 345.269628 15.1483134 345.240459 15.2734331 345.215896 15.3279331 345.205917 15.4046937 345.17598 15.4614965 345.182889 15.4231162 345.187494 15.3862711 345.1921 15.3478909 345.197473 15.3985528 345.190565 15.4492148 345.185191 15.4998767 345.179818 16.0164754 345.126854 16.5215599 344.759938 16.4962289 344.183466 16.4739683 343.690663 16.0548556 343.130311 15.4998767 343.187882 14.1281655 343.329889 12.8700599 343.850326 11.8314894 344.766079 10.8888697 345.596628 10.2141444 346.765691 9.93089787 347.986952 9.81422181 348.493572 10.0874894 349.089234 10.6271162 349.212051 11.1352711 349.327959 11.7270951 349.059297 11.8522148 348.5166"/>
        <path fill="#000" fill-rule="nonzero" d="M8.57492257 340.438779C8.52502819 342.703983 9.33024651 344.883983 10.7641338 346.626448 11.0957394 347.030209 11.8326409 346.996434 12.1726901 346.626448 12.5664718 346.196589 12.5265563 345.647751 12.1726901 345.217124 12.1335422 345.1703 12.095162 345.123476 12.0575493 345.075117 12.1197254 345.157251 12.1158873 345.152645 12.0460352 345.060533 11.9761831 344.961511 11.9047957 344.863257 11.8364789 344.761934 11.7006127 344.560054 11.5739578 344.3528 11.4572817 344.138638 11.3544226 343.95211 11.2646127 343.760209 11.1717324 343.568307 11.1249084 343.46161 11.121838 343.457772 11.1632888 343.556026 11.1402606 343.499222 11.118 343.44242 11.0949718 343.386384 11.0512183 343.272779 11.0097676 343.158406 10.9706197 343.044033 10.8240071 342.611871 10.7119366 342.168194 10.6382465 341.71761 10.6282676 341.657737 10.6190563 341.597863 10.6098451 341.53799 10.6259648 341.651596 10.6259648 341.650061 10.6113803 341.531082 10.6014014 341.410567 10.5883521 341.289286 10.5799084 341.168004 10.5653239 340.925441 10.5622535 340.681343 10.5676267 340.438779 10.5791409 339.917574 10.1009226 339.418631 9.57127462 339.442427 9.021669 339.46699 8.58797181 339.879962 8.57492257 340.438779M30.0581317 351.146263C30.1702021 351.446397 30.2669204 351.750369 30.3467514 352.059714 30.3897373 352.226284 30.42735 352.39439 30.4603571 352.563263 30.4749416 352.634651 30.4887584 352.707573 30.5010401 352.780496 30.5056457 352.808129 30.5540049 353.102122 30.5271388 352.93939 30.5010401 352.777426 30.5424909 353.070651 30.5455612 353.09982 30.5532373 353.17351 30.5593782 353.246433 30.565519 353.320122 30.5785683 353.479017 30.5862444 353.638679 30.5900824 353.798341 30.5939204 353.951094 30.5962233 354.105383 30.5885472 354.259672 30.5770331 354.511446 30.5678218 354.258137 30.5969909 354.251996 30.5885472 354.294214 30.5793359 354.334897 30.5662866 354.37558 30.6323007 354.237411 30.6399767 354.216686 30.59085 354.312637 30.347519 354.7732 30.4588218 355.416454 30.9477866 355.675137 31.4091176 355.919235 32.0508359 355.810235 32.3118218 355.318967 32.6917866 354.599721 32.6142584 353.69932 32.5167726 352.917129 32.418519 352.128031 32.2565543 351.362728 31.9794486 350.617383 31.8873359 350.367911 31.7576106 350.159122 31.5219556 350.021721 31.3085612 349.896601 30.9938429 349.843637 30.75435 349.921165 30.2768993 350.075454 29.8639274 350.623524 30.0581317 351.146263M24.9607697 351.630469C25.0452063 352.609934 25.0237134 353.594772 24.8955233 354.568863 24.9078049 354.480589 24.919319 354.392314 24.9316007 354.304039 24.9139457 354.430694 24.8947556 354.557349 24.8747979 354.684004 24.8310444 354.957272 24.8302767 355.203673 24.9753543 355.45161 25.0966359 355.658096 25.3330584 355.855371 25.5710162 355.909103 25.8258612 355.967441 26.1121782 355.955159 26.3386218 355.808546 26.5428049 355.677286 26.7561993 355.463891 26.7961148 355.213652 26.9872486 354.025399 27.0563331 352.830237 26.9534739 351.630469 26.9296782 351.361807 26.8575233 351.122314 26.6617838 350.926574 26.4883049 350.753096 26.2050584 350.623371 25.9571218 350.634117 25.4558754 350.656378 24.9131782 351.074722 24.9607697 351.630469M17.1894535 352.565259C17.1810099 352.700357 17.1687282 352.834689 17.1510733 352.968252 17.1633549 352.879978 17.174869 352.792471 17.1871507 352.704196 17.120369 353.195463 16.9898761 353.674449 16.7979746 354.13271 16.8317493 354.052879 16.8647563 353.973816 16.898531 353.894752 16.7918338 354.143456 16.6682493 354.382949 16.5285451 354.614766 16.2575803 355.060745 16.4149394 355.729329 16.8854817 355.977266 17.3698409 356.232879 17.959362 356.096245 18.2487493 355.619562 18.8106366 354.693829 19.1176789 353.643745 19.1813901 352.565259 19.1959746 352.319626 19.0601084 352.031773 18.8897 351.860597 18.7169888 351.687886 18.4337422 351.558161 18.1858056 351.568907 17.6193127 351.594238 17.2224606 352.006443 17.1894535 352.565259"/>
        <path fill="#005265" fill-rule="nonzero" d="M271.309674,185.933351 L168.425956,185.933351 C151.527117,185.933351 138.809428,201.322309 141.991153,217.917943 L170.730307,367.773753 L271.309674,367.773753 L371.889807,367.773753 L400.628195,217.917943 C403.810688,201.322309 391.09223,185.933351 374.19416,185.933351 L271.309674,185.933351 Z"/>
        <path fill="#90DBE5" fill-rule="nonzero" d="M271.309674,215.295802 L189.924287,215.295802 C176.557202,215.295802 166.495428,227.46926 169.013174,240.597619 L193.593441,367.773753 L349.456533,367.773753 L373.606941,240.597619 C376.123921,227.46926 366.062913,215.295802 352.695829,215.295802 L271.309674,215.295802 Z"/>
        <path fill="#B45C2E" fill-rule="nonzero" d="M407.983162 367.773446C407.983162 367.773446 406.008112 353.773087 403.009845 343.880185 400.011578 333.986516 405.707979 320.495079 409.905246 309.403178 414.102514 298.310509 401.237444 288.84977 388.618774 293.213607 376.000873 297.578213 363.752957 327.391249 364.64338 351.074953L362.539373 367.773446 407.983162 367.773446zM136.903002 313.047846C136.903002 313.047846 123.276467 283.721473 122.387579 270.687529 121.49946 257.653586 138.680009 246.397417 150.529538 257.35729 162.378298 268.317931 169.190798 277.500797 185.187699 289.350326 201.183833 301.199086 204.738615 318.380403 193.482446 324.601079 182.225509 330.821755 167.710854 321.935184 167.710854 321.935184 167.710854 321.935184 179.263319 332.006171 188.446185 338.819438 197.629051 345.632706 208.885988 351.996924 203.553432 367.773522L122.354572 367.773522C122.354572 367.773522 122.980171 350.372671 132.459333 346.226065 132.459333 346.226065 121.355917 334.361184 122.354572 326.08179 124.120833 311.436643 136.903002 313.047846 136.903002 313.047846"/>
        <path fill="#000" fill-rule="nonzero" d="M142.369889,300.383044 C149.361241,309.416995 157.947678,317.15446 167.617974,323.232361 C169.645221,324.506587 171.510502,321.29646 169.490932,320.02684 C160.080087,314.111671 151.796854,306.547685 144.995101,297.758601 C144.380249,296.965664 143.015446,297.113044 142.369889,297.758601 C141.586932,298.542326 141.75427,299.587805 142.369889,300.383044"/>
        <path fill="#FFCF00" fill-rule="nonzero" d="M324.466364,290.427429 C324.018083,291.172007 323.369456,291.848267 322.584962,292.510711 C320.503984,294.266993 317.804315,295.499767 315.24435,296.484606 C307.082399,299.622578 298.223462,301.042648 289.561033,301.908507 C278.558174,303.008486 267.421751,303.088317 256.40047,302.208641 C247.374962,301.487859 238.21666,300.181394 229.606428,297.286754 C226.708716,296.311894 223.821751,295.13669 221.270998,293.427233 C220.380576,292.832338 219.569216,292.176035 218.843061,291.361606 C218.52604,291.004669 218.427019,290.88262 218.152984,290.427429 C217.829822,289.890106 217.796815,289.821789 217.65404,289.30212 C217.463674,288.614345 217.465209,288.092373 217.683209,287.363916 C217.878949,286.711451 218.393244,285.900091 218.931336,285.310571 C220.631583,283.449127 222.963568,282.209444 225.256406,281.167803 C232.696807,277.784965 241.122815,276.303486 249.175766,275.296388 C260.07423,273.93312 271.133124,273.659852 282.093766,274.27931 C291.559878,274.814331 301.119639,275.975718 310.248772,278.62012 C313.455061,279.548922 316.647533,280.659648 319.582089,282.272388 C321.487287,283.320169 323.513766,284.692648 324.52547,286.442021 C324.917716,287.118282 325.086589,287.695521 325.094266,288.384063 C325.086589,289.107148 324.898526,289.709718 324.466364,290.427429 M316.998329,278.334571 C308.661364,274.889556 299.462378,273.432641 290.545104,272.486951 C279.000315,271.261852 267.292794,271.171274 255.724977,272.140761 C246.417759,272.920648 236.917871,274.270099 228.078124,277.396556 C225.047617,278.468134 221.974124,279.750035 219.367336,281.662141 C217.572674,282.978584 215.805646,284.678063 215.239921,286.911796 C213.94804,292.010233 219.421068,295.542754 223.292104,297.404197 C231.028801,301.124782 239.784111,302.716028 248.22854,303.825218 C259.547653,305.313606 271.050223,305.609134 282.442259,304.94362 C292.321343,304.36638 302.357787,303.143584 311.852301,300.254317 C315.153772,299.248754 318.463688,298.029796 321.450441,296.28119 C323.526815,295.066071 325.70835,293.473289 326.826751,291.274866 C327.288083,290.369859 327.556744,289.403444 327.569026,288.384063 C327.507617,283.051507 321.167962,280.057845 316.998329,278.334571"/>
        <path fill="#FFCF00" fill-rule="nonzero" d="M370.768566,288.383987 C370.758588,289.814036 370.334869,291.182677 369.564961,292.497585 C368.657651,294.047381 367.457116,295.308557 366.020157,296.538261 C362.129933,299.870438 357.276362,302.127966 352.544841,303.982501 C345.828291,306.615388 338.82082,308.494487 331.776503,310.015113 C323.104862,311.885001 314.313474,313.177649 305.492151,314.082656 C285.136017,316.172846 264.5212,316.340184 244.126686,314.719768 C227.413609,313.391043 210.431869,310.986134 194.496376,305.59217 C189.126207,303.774479 183.760644,301.58143 179.045243,298.387423 C177.348066,297.238317 175.746841,295.927247 174.402763,294.373613 C173.402573,293.217599 172.520594,291.77143 172.12451,290.344451 C171.737637,288.951247 171.748383,287.683162 172.170566,286.263093 C172.585841,284.868353 173.516946,283.391479 174.536327,282.241606 C177.643594,278.734416 181.962911,276.38324 186.164017,274.447339 C192.268784,271.632529 198.769637,269.667459 205.2797,268.04474 C213.529926,265.988324 221.930601,264.527571 230.361982,263.459832 C250.526982,260.906007 270.998256,260.39555 291.283771,261.556938 C308.7752,262.558662 326.462369,264.714867 343.315918,269.661317 C349.231855,271.398409 355.127066,273.487064 360.521799,276.506824 C364.041271,278.478036 367.750341,281.01574 369.685474,284.480712 C370.364806,285.698134 370.759355,287.052959 370.768566,288.383987 M368.111883,278.77817 C364.10882,275.21955 359.167743,272.820015 354.245855,270.815796 C347.487855,268.065466 340.405926,266.123423 333.289454,264.554438 C324.352221,262.583994 315.278355,261.237613 306.179157,260.282712 C285.365531,258.098106 264.272496,257.92693 243.416651,259.631783 C226.344334,261.027289 208.922756,263.489001 192.697109,269.183867 C187.274743,271.086761 181.807855,273.368085 177.106271,276.724057 C173.913799,279.002311 170.709812,281.99367 169.695038,285.929184 C167.4022,294.816522 177.519243,300.942783 184.165939,304.107621 C190.349003,307.051388 196.927383,309.140043 203.549517,310.838754 C212.036165,313.015684 220.685545,314.523261 229.3687,315.655479 C249.974306,318.342867 270.913052,318.874817 291.649151,317.665071 C309.562763,316.62036 327.738897,314.400444 344.965503,309.198381 C350.969714,307.385296 356.976996,305.188409 362.417784,302.028944 C366.096151,299.893466 369.94032,297.130085 371.965263,293.272867 C372.760503,291.757613 373.231812,290.101121 373.243327,288.383987 C373.217228,284.536747 370.887545,281.246022 368.111883,278.77817"/>
        <path fill="#FFCF00" fill-rule="nonzero" d="M417.502546,301.401043 C411.42311,306.606944 403.868335,310.128719 396.474757,313.027198 C386.140483,317.077853 375.359462,319.968656 364.520103,322.306783 C351.121546,325.197585 337.533391,327.191824 323.902251,328.59117 C292.583173,331.805134 260.864941,332.06305 229.485222,329.569867 C203.713631,327.521895 177.520624,323.820501 152.949567,315.502726 C144.634096,312.688684 136.316321,309.295867 129.016391,304.350951 C124.449906,301.257501 119.597103,297.104754 118.060356,291.576459 C116.717814,286.743613 118.743526,282.074268 121.943673,278.461916 C126.759631,273.025733 133.456222,269.367324 139.967821,266.364451 C149.414744,262.009824 159.464237,258.958593 169.539828,256.447754 C182.291293,253.269867 195.274574,251.020015 208.308518,249.369662 C239.334371,245.440289 270.830765,244.654261 302.042378,246.441247 C329.011434,247.98567 356.289835,251.307867 382.274821,258.935564 C391.430821,261.622951 400.55842,264.859944 408.907666,269.534662 C414.355363,272.585128 420.124688,276.454628 423.244237,282.042029 C424.334237,283.99405 424.987469,286.141043 425.002821,288.383987 C424.967511,293.71424 421.359765,298.097268 417.502546,301.401043 M419.777729,274.075817 C413.710574,268.681853 406.197251,265.033423 398.737659,261.996776 C388.339673,257.764198 377.444279,254.776677 366.494384,252.362557 C352.801067,249.344332 338.901265,247.275634 324.959244,245.812578 C292.936272,242.452001 260.481138,242.189479 228.39292,244.811621 C202.182257,246.954007 175.444251,250.742141 150.533145,259.48517 C142.242237,262.395162 133.893757,265.888536 126.705899,271.019212 C121.935997,274.422776 117.124645,278.904057 115.607856,284.783916 C112.172054,298.104944 127.670779,307.287811 137.567518,312.001677 C147.028257,316.505987 157.100011,319.69155 167.231638,322.290662 C180.230272,325.625141 193.478378,327.942543 206.779448,329.677332 C238.483096,333.813191 270.699504,334.629923 302.603497,332.769247 C330.108343,331.164951 358.008504,327.752177 384.457891,319.766007 C393.643828,316.992649 402.828229,313.635141 411.152912,308.803064 C416.718054,305.572212 422.538039,301.406416 425.601554,295.569543 C426.769849,293.342719 427.460694,290.906339 427.476814,288.383987 C427.439201,282.640761 423.915124,277.754184 419.777729,274.075817"/>
        <path fill="#000" fill-rule="nonzero" d="M133.016231 348.174785C139.665231 348.488736 145.729316 351.710377 151.078759 355.451687 156.831196 359.475476 162.041703 364.233095 168.004463 367.961356 170.036316 369.231743 171.900829 366.021616 169.877421 364.756602 158.000259 357.330017 147.995288 345.171144 133.016231 344.462644 130.62821 344.350574 130.633583 348.062715 133.016231 348.174785M363.645723 332.496594C360.216061 343.432671 362.039893 355.835643 368.520019 365.29715 369.861026 367.256079 373.078829 365.401544 371.724005 363.424193 365.76585 354.721847 364.067906 343.552417 367.225068 333.482967 367.941244 331.198572 364.358829 330.220643 363.645723 332.496594M282.357515 286.284355C285.26367 280.723052 288.269613 275.197827 291.493557 269.813073 292.416219 268.270954 293.358071 266.735743 294.379754 265.256566 294.58317 264.963341 294.791959 264.674721 295.001515 264.385334 295.127402 264.211088 295.208001 264.115904 295.016867 264.358467 295.122796 264.224904 295.228726 264.091341 295.337726 263.960848 295.716923 263.509496 296.120684 263.076566 296.532121 262.654383 296.928972 262.24832 297.341944 261.856841 297.775641 261.489157 297.874662 261.405489 297.976754 261.325657 298.075776 261.241989 298.387423 260.977165 297.833979 261.413165 298.096501 261.224334 298.330621 261.056228 298.56167 260.88582 298.801162 260.72539 299.955641 259.950109 301.196093 259.307622 302.441916 258.695073 307.119705 256.390721 311.976346 254.454052 316.624198 252.090594 321.774064 249.471524 326.600001 246.257559 331.160346 242.720433 340.935036 235.140327 349.433966 225.847693 355.214804 214.864024 359.624698 206.484073 363.425113 197.52458 365.783966 188.328665 365.819276 188.188193 365.855353 188.047721 365.889128 187.907249 366.441804 185.584474 362.863994 184.592728 362.309783 186.920109 360.516656 194.454926 357.482311 201.829312 354.130177 208.781517 351.399036 214.446446 348.299444 219.865743 344.335529 224.765369 340.456817 229.559834 336.049994 233.925974 331.310796 237.868397 326.905507 241.532179 322.168613 244.824439 317.156149 247.605474 312.351705 250.271369 307.236381 252.336228 302.269972 254.67282 299.668557 255.897151 297.070979 257.164467 294.898656 259.081946 292.800789 260.934946 291.211078 263.236228 289.728832 265.588939 285.978311 271.543256 282.641529 277.776214 279.366923 284.002263 279.295536 284.138129 279.223381 284.274763 279.151994 284.411397 278.047409 286.525383 281.249093 288.404482 282.357515 286.284355"/>
        <path fill="#FFCF00" fill-rule="nonzero" d="M364.84741,166.408918 C364.84741,115.016186 323.399776,73.3029606 272.1076,72.8746366 C220.363304,72.4432422 177.772706,114.663088 177.772706,166.408918 C177.772706,206.938496 203.551973,241.443137 239.60641,254.430256 C245.668191,256.614094 250.626156,261.098446 253.607537,266.8102 L264.000917,286.724961 C267.084389,292.631686 275.535727,292.631686 278.618431,286.724961 L289.091643,266.659749 C292.045389,260.999426 296.987234,256.59951 302.994516,254.437165 C339.058931,241.455418 364.84741,206.946172 364.84741,166.408918"/>
        <path fill="#00B300" fill-rule="nonzero" d="M315.919229,218.175091 L233.151384,218.22499 C227.38513,218.228823 222.707341,213.556407 222.703504,207.790922 L222.661285,136.502619 L326.311074,136.440443 L326.354065,207.727978 C326.357898,213.494232 321.68625,218.172021 315.919229,218.175091"/>
        <polygon fill="#282223" fill-rule="nonzero" points="326.318 136.438 326.332 159.246 222.668 159.309 222.654 136.5"/>
        <path fill="#00B4DA" fill-rule="nonzero" d="M243.247854,136.490261 L211.999396,136.508683 L224.677939,108.270774 C225.609044,106.195169 227.673136,104.859535 229.948319,104.858 L251.788234,104.844183 L243.247854,136.490261 Z"/>
        <polygon fill="#5CD1E7" fill-rule="nonzero" points="274.496 136.472 243.248 136.49 251.788 104.845 274.477 104.831"/>
        <polygon fill="#00B4DA" fill-rule="nonzero" points="305.745 136.453 274.496 136.471 274.477 104.831 297.165 104.817"/>
        <path fill="#5CD1E7" fill-rule="nonzero" d="M336.993151,136.434072 L305.744693,136.452494 L297.165165,104.817931 L319.00508,104.804111 C321.281031,104.802579 323.34589,106.13591 324.280066,108.210748 L336.993151,136.434072 Z"/>
        <path fill="#00B300" fill-rule="nonzero" d="M243.236576,136.488034 C243.241944,145.131274 236.249824,152.13107 227.635754,152.136449 C218.992514,152.141816 211.992718,145.149696 211.987345,136.506457 L243.236576,136.488034 Z"/>
        <path fill="#00B300" fill-rule="nonzero" d="M274.485802,136.468538 C274.491169,145.112544 267.499049,152.11234 258.885746,152.117719 C250.241739,152.123087 243.241944,145.130967 243.236571,136.487728 L274.485802,136.468538 Z"/>
        <path fill="#00B300" fill-rule="nonzero" d="M305.735718,136.449807 C305.741085,145.093815 298.748966,152.093611 290.134895,152.09899 C281.490888,152.104357 274.491093,145.112238 274.485719,136.46823 L305.735718,136.449807 Z"/>
        <path fill="#00B300" fill-rule="nonzero" d="M336.984943,136.431078 C336.990311,145.075085 329.998191,152.074881 321.384121,152.080261 C312.740881,152.085628 305.741085,145.093507 305.735712,136.449501 L336.984943,136.431078 Z"/>
        <path fill="#0092B2" fill-rule="nonzero" d="M243.236576,136.488034 C243.241944,145.131274 236.249824,152.13107 227.635754,152.136449 C218.992514,152.141816 211.992718,145.149696 211.987345,136.506457 L243.236576,136.488034 Z"/>
        <path fill="#00A7D1" fill-rule="nonzero" d="M274.485802,136.468538 C274.491169,145.112544 267.499049,152.11234 258.885746,152.117719 C250.241739,152.123087 243.241944,145.130967 243.236571,136.487728 L274.485802,136.468538 Z"/>
        <path fill="#0092B2" fill-rule="nonzero" d="M305.735718,136.449807 C305.741085,145.093815 298.748966,152.093611 290.134895,152.09899 C281.490888,152.104357 274.491093,145.112238 274.485719,136.46823 L305.735718,136.449807 Z"/>
        <path fill="#00A7D1" fill-rule="nonzero" d="M336.984943,136.431078 C336.990311,145.075085 329.998191,152.074881 321.384121,152.080261 C312.740881,152.085628 305.741085,145.093507 305.735712,136.449501 L336.984943,136.431078 Z"/>
        <path fill="#B7E57B" fill-rule="nonzero" d="M285.012662,166.403697 L263.996388,166.416748 C260.803149,166.419051 258.216317,169.008952 258.217852,172.202191 L258.245487,218.210171 L290.824972,218.19098 L290.797339,172.181466 C290.795036,168.988994 288.205134,166.402163 285.012662,166.403697"/>
        <path fill="#000" fill-rule="nonzero" d="M43.132912,222.95382 C41.2952641,243.420489 42.4528134,264.094411 39.6472148,284.483552 C38.8627218,290.191467 37.7519965,295.852559 36.2091091,301.404651 C35.8659894,302.642031 37.7873063,303.170144 38.1304261,301.935066 C43.6825176,281.948151 43.3931303,261.056996 44.1070035,240.501284 C44.310419,234.644454 44.6005739,228.790693 45.1248486,222.95382 C45.2392218,221.677291 43.2465176,221.684967 43.132912,222.95382"/>
        <path fill="#000" fill-rule="nonzero" d="M49.2325366,225.942569 C48.2039451,227.679661 47.1753535,229.416752 46.146762,231.153844 C45.6984803,231.911471 45.274762,232.694428 44.7758183,233.421351 C44.4273254,233.930273 44.0020718,234.402351 43.4041071,234.562012 C42.1667267,234.892083 42.691769,236.814167 43.9337549,236.482562 C45.7875226,235.987456 46.6894591,234.148273 47.5906282,232.626111 C48.7113324,230.733196 49.8320366,228.84028 50.9527409,226.9489 C51.6082761,225.84278 49.8865366,224.83952 49.2325366,225.942569"/>
        <path fill="#EE2736" fill-rule="nonzero" d="M427.246072,123.228107 C427.246072,133.497136 418.921389,139.604206 408.652361,136.869228 C398.3841,134.133481 390.060184,123.591185 390.060184,113.322924 C390.060184,103.053896 398.3841,96.9468263 408.652361,99.681805 C418.921389,102.417551 427.246072,112.959079 427.246072,123.228107"/>
        <path fill="#FFF" fill-rule="nonzero" d="M407.744053 116.930594C407.835398 114.673834 407.664222 112.20982 407.308053 109.825637 407.186771 109.006601 406.486715 108.279679 405.777447 108.236693 405.05513 108.175284 404.567701 108.790904 404.68975 109.609939 404.933849 111.244939 405.09044 112.351059 405.098884 114.275446 405.101187 114.820446 404.696659 115.153588 404.196179 115.020024 403.698004 114.887228 403.294243 114.340693 403.294243 113.799531L403.286567 108.295799C403.286567 107.576552 402.834447 106.789756 402.181983 106.499601 401.350666 106.131151 400.630651 106.633933 400.630651 107.510538L400.638328 113.091799C400.638328 113.633728 400.219983 113.961496 399.721806 113.827933 399.22056 113.694369 398.816032 113.144763 398.819102 112.600531 398.831384 110.682284 398.984138 109.659066 399.226701 108.155327 399.349517 107.402306 398.862856 106.526467 398.139771 106.202538 397.409011 105.859418 396.730447 106.221728 396.609166 106.976284 396.27756 109.021186 396.101011 111.238031 396.158581 113.381954 396.218454 115.674791 397.329179 117.902383 398.997954 119.437594 399.760954 120.138418 400.288299 121.104834 400.330517 122.081996L400.473293 125.408031C400.510905 126.276961 401.162602 127.125933 401.954004 127.337024 402.74387 127.547348 403.395567 127.046869 403.433947 126.198665L403.576722 123.062996C403.621243 122.106559 404.169313 121.43951 404.94306 121.163172 406.548891 120.589003 407.659616 119.049954 407.744053 116.930594M415.51606 110.031893C411.900638 109.069315 410.093694 114.012695 410.093694 117.595111 410.093694 119.533315 411.150687 121.486104 412.601461 122.860117 413.296912 123.518723 413.780504 124.396096 413.821187 125.278076L413.99313 129.013244C414.032278 129.879104 414.702398 130.730378 415.51606 130.949913 416.329722 131.163307 416.999841 130.669738 417.038989 129.824604L417.210933 126.181547C417.251616 125.321061 417.735207 124.700836 418.431426 124.412216 419.881433 123.811181 420.938426 122.422583 420.938426 120.483611 420.938426 116.901195 419.131483 110.995238 415.51606 110.031893M118.332779 124.264068C119.199406 108.475956 132.013815 93.0348006 147.007456 89.6542657 162.133893 86.2437938 173.865977 96.5158926 172.993209 112.412238 172.309272 124.862801 164.194913 137.096132 153.441526 143.37054 151.633815 144.42523 150.108583 146.117033 149.142167 148.060611L145.76854 154.837033C144.76835 156.846624 142.298962 157.382413 141.49835 155.762766L138.776421 150.262104C138.008815 148.710772 136.639406 147.672202 134.91997 147.388188 124.601815 145.684871 117.648843 136.717702 118.332779 124.264068"/>
        <path fill="#EE2736" fill-rule="nonzero" d="M165.089251,113.839907 C165.089251,124.108935 156.764567,134.439372 146.495539,136.9149 C136.226511,139.388893 127.902596,133.070731 127.902596,122.801703 C127.902596,112.533443 136.226511,102.202238 146.495539,99.7274775 C156.764567,97.2534843 165.089251,103.570879 165.089251,113.839907"/>
        <path fill="#FFF" fill-rule="nonzero" d="M145.586541 117.437291C145.677886 115.134474 145.50671 112.756432 145.151309 110.554171 145.029259 109.795777 144.329203 109.425023 143.620703 109.741277 142.898386 110.046016 142.410189 110.909572 142.533006 111.665664 142.776337 113.177847 142.932928 114.204136 142.941372 116.124685 142.944443 116.66815 142.539914 117.206241 142.039435 117.326756 141.540491 117.44727 141.136731 117.105685 141.136731 116.563756L141.129055 111.063861C141.129055 110.345383 140.677703 109.787333 140.025238 109.828784 139.193921 109.881749 138.473907 110.749911 138.473907 111.626516L138.481583 117.203939C138.481583 117.745101 138.062471 118.284728 137.565062 118.406009 137.063048 118.526523 136.65852 118.181868 136.662357 117.635333 136.674639 115.710946 136.827393 114.610199 137.069956 112.982876 137.192773 112.168446 136.705344 111.539777 135.982259 111.581995 135.252266 111.609629 134.573703 112.316594 134.451654 113.133326 134.120816 115.345566 133.944266 117.651453 134.001069 119.766974 134.06171 122.029107 135.171667 123.693277 136.84121 124.381819 137.603443 124.69577 138.131555 125.395059 138.173773 126.34996L138.316548 129.60384C138.353393 130.453579 139.005857 130.972481 139.796491 130.781347 140.587126 130.590981 141.238055 129.760432 141.277203 128.893038L141.419978 125.683678C141.463731 124.705749 142.012569 123.759291 142.786316 123.090706 144.392146 121.702107 145.502872 119.598868 145.586541 117.437291M153.359316 106.595629C149.743893 107.466861 147.936949 113.32753 147.936949 116.909946 147.936949 118.84815 148.993943 120.264383 150.443949 120.902262 151.1394 121.208538 151.623759 121.839509 151.664443 122.70153L151.836386 126.349193C151.875534 127.195861 152.545654 127.706319 153.359316 127.512883 154.172978 127.314072 154.842329 126.480453 154.881478 125.614594L155.054189 121.884798C155.094872 121.004354 155.578463 120.139262 156.273914 119.497544 157.724689 118.159607 158.781682 116.234453 158.781682 114.296249 158.781682 110.713066 156.973971 105.724396 153.359316 106.595629"/>
        <g transform="translate(264.056 .57)">
          <mask id="daftar-sekarang-gofood-d" fill="#fff">
            <use xlink:href="#daftar-sekarang-gofood-c"/>
          </mask>
          <path fill="#FFCF00" fill-rule="nonzero" d="M9.39802606,41.9977 L9.39802606,4.64600986 C9.39802606,-1.28067324 0.186758451,-1.29065211 0.186758451,4.64600986 L0.186758451,41.9977 C0.186758451,47.9251507 9.39802606,47.934362 9.39802606,41.9977" mask="url(#daftar-sekarang-gofood-d)"/>
        </g>
        <path fill="#FFCF00" fill-rule="nonzero" d="M324.560856 53.4816944L343.236701 34.8058493C347.433969 30.6085817 340.921603 24.0939127 336.723567 28.2927155 330.497518 34.5179972 324.273004 40.7432789 318.047722 46.9685606 313.850455 51.1650606 320.362054 57.6804972 324.560856 53.4816944M219.649968 46.9682535L200.974123 28.2924084C196.776856 24.0951409 190.262187 30.6075071 194.460989 34.8055422 200.686271 41.0315916 206.911553 47.2561056 213.136834 53.4813873 217.333334 57.6786549 223.848771 51.1670563 219.649968 46.9682535"/>
      </g>
    </g>
  </g>
</svg>
